/* XPM */
static char * minimizeI_xpm[] = {
"18 42 3 1",
" 	c None",
".	c #2F343F",
"+	c #D3DAE3",
"..................",
"..................",
"..................",
"..................",
"..................",
"..................",
"..................",
"..................",
".....+++++++......",
".....+++++++......",
"..................",
"..................",
"..................",
"..................",
"..................",
"..................",
"..................",
"..................",
"..................",
"..................",
"..................",
"..................",
"..................",
"..................",
"..................",
"..................",
"..................",
"..................",
"..................",
"..................",
"..................",
"..................",
".....+++++++......",
".....+++++++......",
"..................",
"..................",
"..................",
"..................",
"..................",
"..................",
"..................",
".................."};
