/* XPM */
static char * pixmap[] = {
/* width height num_colors chars_per_pixel */
"81 19 118 2",
/* colors */
"   c #D3DAE3",
"!  c #D2D9E2",
"#  c #D1D8E1",
"$  c #D0D7E0",
"%  c #D0D7DF",
"&  c #CFD6DF",
"'  c #CED5DE",
"(  c #CDD4DD",
")  c #CCD3DD",
"*  c #CBD2DB",
"+  c #CAD2DA",
",  c #C9D0D9",
"-  c #C8CFD8",
".  c #C8CED8",
"/  c #C6CDD6",
"0  c #C6CCD6",
"1  c #C5CCD5",
"2  c #C4CBD4",
"3  c #C3CAD3",
"4  c #C2C9D3",
"5  c #C2C9D2",
"6  c #C0C7D0",
"7  c #C0C6D0",
"8  c #BEC5CE",
"9  c #BDC3CD",
":  c #BBC2CB",
";  c #BAC1CB",
"<  c #B9BFC9",
"=  c #B9BFC8",
">  c #B6BDC6",
"?  c #B6BCC6",
"@  c #B4BAC4",
"A  c #B3BAC3",
"B  c #B2B9C2",
"C  c #B1B8C1",
"D  c #AEB4BE",
"E  c #ACB2BC",
"F  c #ABB2BC",
"G  c #A9B0B9",
"H  c #A9AFB9",
"I  c #A7ADB6",
"J  c #A4ABB4",
"K  c #A3AAB4",
"L  c #A2A9B2",
"M  c #A2A8B2",
"N  c #A1A7B1",
"O  c #9FA5AF",
"P  c #9CA2AC",
"Q  c #9AA0AA",
"R  c #99A0AA",
"S  c #979EA7",
"T  c #979DA7",
"U  c #959BA5",
"V  c #9298A2",
"W  c #90959F",
"X  c #8D939D",
"Y  c #8A919A",
"Z  c #888E98",
"[  c #878E98",
"]  c #858B95",
"^  c #818791",
"_  c #818691",
"`  c #7E848E",
"a  c #7C828C",
"b  c #7B828C",
"c  c #797F89",
"d  c #787E88",
"e  c #777C87",
"f  c #747A84",
"g  c #747984",
"h  c #727882",
"i  c #717782",
"j  c #717781",
"k  c #6F757F",
"l  c #6C727C",
"m  c #6B727B",
"n  c #696F7A",
"o  c #676D77",
"p  c #676C77",
"q  c #656A75",
"r  c #626872",
"s  c #626772",
"t  c #616671",
"u  c #5F6570",
"v  c #5F656F",
"w  c #5D626D",
"x  c #5C626C",
"y  c #5B606B",
"z  c #5A606A",
"{  c #585D68",
"|  c #555B65",
"}  c #555A65",
"~  c #535863",
" ! c #525863",
"!! c #505560",
"#! c #4E535E",
"$! c #4D535D",
"%! c #4C515C",
"&! c #4B505B",
"'! c #4A505B",
"(! c #4A4F5A",
")! c #484D59",
"*! c #484D58",
"+! c #464B56",
",! c #434853",
"-! c #424852",
".! c #404651",
"/! c #3E444E",
"0! c #3E434E",
"1! c #3C404C",
"2! c #3B414B",
"3! c #393E49",
"4! c #363B47",
"5! c #363B46",
"6! c #343944",
"7! c #313642",
"8! c #313641",
"9! c #2F343F",
/* pixels */
"9!9!9!9!9!9!9!9!9!9!9!9!9!9!9!9!9!9!9!9!9!9!9!9!9!9!9!9!9!9!9!9!9!9!9!9!9!9!9!9!9!9!9!9!9!9!9!9!9!9!9!9!9!9!9!9!9!9!9!9!9!9!9!9!9!9!9!9!9!9!9!9!9!9!9!9!9!9!9!9!9!",
"9!9!9!9!9!9!9!9!9!9!9!9!9!2!5!9!9!9!9!9!9!9!9!9!9!9!9!9!9!9!9!9!9!9!9!9!9!9!9!9!9!9!9!9!9!9!9!9!9!9!9!9!9!9!9!9!9!9!9!9!9!9!9!9!9!9!9!9!9!9!9!9!9!9!9!9!9!9!9!9!9!",
"9!9!9!9!9!9!9!9!9!9!9!9!9!Y * h 9!9!9!9!9!9!9!9!9!9!9!9!9!9!9!9!9!9!9!9!9!9!9!9!9!9!9!9!9!9!9!9!9!9!9!9!9!9!9!9!9!9!9!9!9!9!9!9!9!9!9!9!9!9!9!9!9!9!9!9!9!9!9!9!9!",
"9!9!9!9!9!9!9!9!9!9!9!9!8!,   L 9!9!9!9!9!9!9!9!9!9!9!9!9!9!9!9!9!9!9!9!9!9!9!9!9!9!9!9!9!9!9!9!9!9!9!9!9!9!9!9!9!9!9!9!9!9!9!9!9!9!9!9!9!9!9!9!9!9!9!9!9!9!9!9!9!",
"9!9!9!9!9!9!9!9!9!9!9!9!q   ! ( 0!9!9!9!9!9!9!9!9!9!9!9!9!9!3!3!9!9!9!9!9!9!9!9!9!9!9!9!9!9!9!9!/!3!9!9!9!9!/!4!9!9!9!9!/!3!9!7!,!7!9!9!9!9!9!9!3!,!9!9!9!9!9!9!9!",
"9!9!9!9!9!9!9!9!9!9!9!9!M   @   ] 9!9!9!9!9!9!9!9!9!9!9!9!9!U U 9!9!9!9!9!9!9!9!9!9!9!9!9!9!9!9!T D 9!9!9!7!+ K 9!9!9!9!4 c 9!X   D 9!9!9!9!9!3!4   q 9!9!9!9!9!9!",
"9!9!9!9!9!9!9!9!9!9!9!0!$ $ x   - 6!9!9!9!9!9!9!9!9!9!9!9!9!U U 9!9!9!9!9!9!9!9!9!9!9!9!9!9!9!9!n % 3!9!9! !  + 6!9!9!)!  '!9!U H    !9!9!9!9!g C   m 9!9!9!9!9!9!",
"9!9!9!2!*!0!9!9!9!9!9!a   M 9!G   e 9!9!9!9!9!9!9!9!9!9!9!9!U U 9!9!9!'!c ` #!9!9!9!!!c c '!9!9!1!  s 9!9!b C   { 9!9!e 7 9!9!U U K U 9!9!9!9!= i   m 9!9!9!9!9!9!",
"9!9!9!P ! ? 9!9!9!9!9!<   r 9!r   : 8!9!9!9!5!c w 9!9!9!9!9!U U 9!9!q % A R . #!9!c 4 ] K ) u 9!9!D W 9!9!I b C ] 9!9!N V 9!9!U U p ) 3!9!9!{ + 4!  m 9!9!9!9!9!9!",
"9!9!8!2     e 9!9!9!~   0 8!9!9!<   q 9!9!5!>   * ,!9!9!9!9!U U 9!9!4 U 9!9!,!1!/!) } 9!9!V A 9!9!_ = 9!6!)  !] C 9!7!+ q 9!9!U U 6!1 i 9!9!P W 9!  m 9!9!9!9!9!9!",
"9!9!v   5   ( $!9!9!V   Z 9!9!9!k   C 9!5!E   *   J 9!9!9!9!U U 9!+!  s 9!9!9!9!s ) m m m X % 9!9! !  .!{ + 7!{   /!} % 4!9!9!U U 9!X C 9!/!% !!9!  m 9!9!9!9!9!9!",
"9!9!Q   ` Y   > 6!6!*   &!9!9!9!6!3   y E   < (!0   | 9!9!9!U U 9! !  +!9!9!9!9!m . _ _ _ _ b 9!9!9!1 m _ O 9!7!+ n _ H 9!9!9!U U 9!'!  !!b C 9!9!  m 9!9!9!9!9!9!",
"9!3!(   ,!6!@   X l   C 9!9!9!9!9!`   /   < 0!9!^   U 9!9!9!U U 9!1!  u 9!9!9!9!s % 6!9!9!9!9!9!9!9!T T D e 9!9!O U F b 9!9!9!U U 9!9!C V 7 i 9!9!  m 9!9!9!9!9!9!",
"9!j   G 9!9!&!(   ?   j 9!9!9!9!9!-!#   9 0!9!9!~   6 9!9!9!U U 9!9!H D 1!6!` #!3!4 [ 7!9!1! !9!9!9!n 4 % #!9!9!i 4 % '!9!9!9!U U 9!9!i   + 4!9!9!  m 9!9!9!9!9!9!",
"9!E   l 9!9!9!f     ' 3!9!9!9!9!9!!!& ! d 9!9!9!9!6   z 9!9!U U 9!9!'!;     C .!9!} 8 % 8 ) ` 9!9!9!1!  1 9!9!9!,!  8 9!9!9!9!U U 9!9!3!) W 9!9!9!  n 9!9!9!9!9!9!",
"+!  ( 5!9!9!9!9!B   E 9!9!9!9!9!9!9!t %!9!9!9!9!9!Y $ e 9!9!9!9!9!9!9!9!/!.!9!9!9!9!9!/!,!6!9!9!9!9!9!9!9!9!9!9!9!9!9!9!9!9!9!9!9!9!9!9!9!9!9!9!9!9!9!9!9!9!9!9!9!",
"o ( S 9!9!9!9!9!2!{ ,!9!9!9!9!9!9!9!9!9!9!9!9!9!9!2!2!9!9!9!9!9!9!9!9!9!9!9!9!9!9!9!9!9!9!9!9!9!9!9!9!9!9!9!9!9!9!9!9!9!9!9!9!9!9!9!9!9!9!9!9!9!9!9!9!9!9!9!9!9!9!",
"9!2!,!9!9!9!9!9!9!9!9!9!9!9!9!9!9!9!9!9!9!9!9!9!9!9!9!9!9!9!9!9!9!9!9!9!9!9!9!9!9!9!9!9!9!9!9!9!9!9!9!9!9!9!9!9!9!9!9!9!9!9!9!9!9!9!9!9!9!9!9!9!9!9!9!9!9!9!9!9!9!",
"9!9!9!9!9!9!9!9!9!9!9!9!9!9!9!9!9!9!9!9!9!9!9!9!9!9!9!9!9!9!9!9!9!9!9!9!9!9!9!9!9!9!9!9!9!9!9!9!9!9!9!9!9!9!9!9!9!9!9!9!9!9!9!9!9!9!9!9!9!9!9!9!9!9!9!9!9!9!9!9!9!"
};
